<?xml version="1.0" standalone="no"?>
<!DOCTYPE svg PUBLIC "-//W3C//DTD SVG 20010904//EN"
 "http://www.w3.org/TR/2001/REC-SVG-20010904/DTD/svg10.dtd">
<svg version="1.0" xmlns="http://www.w3.org/2000/svg"
 width="64.000000pt" height="64.000000pt" viewBox="0 0 64.000000 64.000000"
 preserveAspectRatio="xMidYMid meet">

<g transform="translate(0.000000,64.000000) scale(0.100000,-0.100000)"
fill="#000000" stroke="none">
<path d="M12 628 c-7 -7 -12 -31 -12 -55 0 -37 4 -45 25 -55 14 -6 25 -20 25
-30 0 -10 11 -29 25 -42 24 -23 25 -24 27 -232 l3 -209 215 0 215 0 3 209 c2
208 3 209 27 232 14 13 25 32 25 42 0 10 11 24 25 30 21 10 25 18 25 55 0 53
-13 67 -62 67 -49 0 -50 -18 0 -22 36 -3 37 -4 37 -43 l0 -40 -295 0 -295 0 0
40 0 40 248 3 c153 1 247 6 247 12 0 15 -493 13 -508 -2z m558 -136 c0 -39
-16 -42 -250 -42 -234 0 -250 3 -250 42 0 17 16 18 250 18 234 0 250 -1 250
-18z m-50 -267 c0 -130 -4 -205 -10 -205 -6 0 -10 63 -10 168 0 180 -3 192
-50 192 -47 0 -50 -12 -50 -192 0 -143 -2 -168 -15 -168 -13 0 -15 25 -15 168
0 180 -3 192 -50 192 -47 0 -50 -12 -50 -192 0 -143 -2 -168 -15 -168 -12 0
-15 21 -17 123 l-2 122 -3 -122 -4 -123 -35 0 -34 0 2 168 3 167 27 3 c22 3
28 -2 32 -20 3 -13 7 -32 9 -43 3 -11 5 -2 6 20 1 47 -12 65 -49 65 -47 0 -50
-12 -50 -192 0 -105 -4 -168 -10 -168 -6 0 -10 75 -10 205 l0 205 200 0 200 0
0 -205z m-172 -37 l2 -168 -30 0 -30 0 0 163 c0 90 3 167 7 171 4 4 16 6 28 4
19 -3 20 -11 23 -170z m130 0 l2 -168 -35 0 -35 0 0 154 c0 85 3 162 6 171 4
10 16 15 33 13 l26 -3 3 -167z"/>
</g>
</svg>
